<svg xmlns="http://www.w3.org/2000/svg" viewBox="0 0 720 200" role="img" aria-label="Flow Forge">
  <title>Flow Forge</title>
  <!-- Mark -->
  <g transform="translate(24, 28)">
    <rect width="144" height="144" rx="28" fill="#0a0b0d"/>
    <!-- Geometric forge flame -->
    <path
      d="M36 102c22-6 34-28 40-50 6 22 16 44 40 50-22 6-34 22-40 44-6-22-18-38-40-44Z"
      fill="#e8953a"
    />
    <path
      d="M64 86c10-4 16-14 18-26 2 12 8 22 18 26-10 4-14 12-18 24-4-12-8-20-18-24Z"
      fill="#ff6a3d"
    />
    <circle cx="82" cy="62" r="7" fill="#f4efe8" opacity="0.9"/>
  </g>
  <!-- Wordmark -->
  <g fill="#f4efe8" font-family="Syne, Avenir Next, Segoe UI, sans-serif" font-weight="700">
    <text x="196" y="92" font-size="54" letter-spacing="0.12em">FLOW</text>
    <text x="196" y="148" font-size="54" letter-spacing="0.12em" fill="#e8953a">FORGE</text>
  </g>
</svg>
